<svg width="20" height="142" viewBox="0 0 20 142" fill="none" xmlns="http://www.w3.org/2000/svg">
<g id="Group 427319893">
<rect id="Rectangle 2169" x="7" width="4" height="122" fill="#B51C33"/>
<g id="Group">
<path id="Vector" d="M18.0488 124.927H17.561V123.951C17.561 123.434 17.3554 122.937 16.9895 122.571C16.6236 122.206 16.1273 122 15.6098 122H1.95122C1.43372 122 0.937424 122.206 0.571499 122.571C0.205574 122.937 0 123.434 0 123.951V126.878C0 127.396 0.205574 127.892 0.571499 128.258C0.937424 128.624 1.43372 128.829 1.95122 128.829H15.6098C16.1273 128.829 16.6236 128.624 16.9895 128.258C17.3554 127.892 17.561 127.396 17.561 126.878V125.902H18.0488C18.1782 125.902 18.3022 125.954 18.3937 126.045C18.4852 126.137 18.5366 126.261 18.5366 126.39V129.317C18.5366 129.446 18.4852 129.571 18.3937 129.662C18.3022 129.753 18.1782 129.805 18.0488 129.805H9.7561C9.36798 129.805 8.99575 129.959 8.72131 130.234C8.44687 130.508 8.29269 130.88 8.29269 131.268V132.493C7.83758 132.844 7.46902 133.295 7.21533 133.811C6.96165 134.326 6.82958 134.893 6.82927 135.468V140.537C6.82927 140.925 6.98345 141.297 7.25789 141.571C7.53234 141.846 7.90456 142 8.29269 142H9.2683C9.65642 142 10.0286 141.846 10.3031 141.571C10.5775 141.297 10.7317 140.925 10.7317 140.537V135.468C10.7314 134.893 10.5993 134.326 10.3456 133.811C10.092 133.295 9.7234 132.844 9.2683 132.493V131.268C9.2683 131.139 9.31969 131.015 9.41117 130.923C9.50265 130.832 9.62673 130.78 9.7561 130.78H18.0488C18.4369 130.78 18.8091 130.626 19.0836 130.352C19.358 130.077 19.5122 129.705 19.5122 129.317V126.39C19.5122 126.002 19.358 125.63 19.0836 125.355C18.8091 125.081 18.4369 124.927 18.0488 124.927Z" fill="#B51C33"/>
</g>
</g>
</svg>
