<svg width="41" height="41" viewBox="0 0 41 41" fill="none" xmlns="http://www.w3.org/2000/svg">
<circle cx="20.25" cy="20.5" r="20" fill="#29ABE2"/>
<path d="M20.3203 11.625C19.4062 11.625 18.5273 11.8125 17.6836 12.1875C16.8516 12.5508 16.1309 13.043 15.5215 13.6641C14.9121 14.2734 14.4199 15 14.0449 15.8438C13.6816 16.6875 13.5 17.5664 13.5 18.4805C13.5 18.9961 13.5703 19.5352 13.7109 20.0977C13.8516 20.6602 14.0156 21.1816 14.2031 21.6621C14.3906 22.1426 14.6602 22.6758 15.0117 23.2617C15.3633 23.8477 15.6738 24.3457 15.9434 24.7559C16.2246 25.1543 16.5996 25.6465 17.0684 26.2324C17.5371 26.8066 17.9004 27.2461 18.1582 27.5508C18.416 27.8555 18.7793 28.2773 19.248 28.8164C19.3887 28.9805 19.4941 29.0977 19.5645 29.168C19.5879 29.2031 19.6289 29.2441 19.6875 29.291C19.7461 29.3496 19.8516 29.4199 20.0039 29.502C20.1562 29.584 20.3027 29.625 20.4434 29.625H20.4961C20.8242 29.625 21.1172 29.4727 21.375 29.168C25.125 24.8555 27 21.293 27 18.4805C27 16.5234 26.4023 14.9004 25.207 13.6113C23.9648 12.2871 22.3359 11.625 20.3203 11.625ZM20.5312 28.4121C20.5195 28.4355 20.4961 28.459 20.4609 28.4824C20.4375 28.459 20.4141 28.4355 20.3906 28.4121L20.0918 28.0781C19.6465 27.5625 19.3008 27.1641 19.0547 26.8828C18.8086 26.5898 18.4629 26.168 18.0176 25.6172C17.5723 25.0664 17.2207 24.6035 16.9629 24.2285C16.7051 23.8418 16.4062 23.3789 16.0664 22.8398C15.7266 22.2891 15.4629 21.7969 15.2754 21.3633C15.0996 20.918 14.9473 20.4434 14.8184 19.9395C14.6895 19.4238 14.625 18.9375 14.625 18.4805C14.625 17.4609 14.8828 16.5117 15.3984 15.6328C15.9141 14.7422 16.6055 14.0391 17.4727 13.5234C18.3516 13.0078 19.3008 12.75 20.3203 12.75C21.2461 12.75 22.0723 12.9141 22.7988 13.2422C23.5254 13.5586 24.1055 13.9922 24.5391 14.543C24.9844 15.0938 25.3184 15.7031 25.541 16.3711C25.7637 17.0391 25.875 17.7422 25.875 18.4805C25.875 21.0117 24.0938 24.3223 20.5312 28.4121ZM20.2676 15.0176C19.9043 15.0176 19.5469 15.0762 19.1953 15.1934C18.8555 15.3105 18.5449 15.4746 18.2637 15.6855C17.9941 15.8848 17.7539 16.125 17.543 16.4062C17.332 16.6875 17.168 16.998 17.0508 17.3379C16.9453 17.6777 16.8926 18.0293 16.8926 18.3926C16.8926 19.3301 17.2207 20.127 17.877 20.7832C18.5449 21.4395 19.3418 21.7676 20.2676 21.7676C21.2051 21.7676 22.002 21.4395 22.6582 20.7832C23.3145 20.127 23.6426 19.3301 23.6426 18.3926C23.6426 17.9355 23.5547 17.502 23.3789 17.0918C23.2031 16.6699 22.9629 16.3125 22.6582 16.0195C22.3535 15.7148 21.9902 15.4746 21.5684 15.2988C21.1582 15.1113 20.7246 15.0176 20.2676 15.0176ZM20.2676 20.6426C19.6465 20.6426 19.1133 20.4199 18.668 19.9746C18.2227 19.5293 18 18.9961 18 18.375C18 17.7539 18.2168 17.2266 18.6504 16.793C19.0957 16.3477 19.6289 16.125 20.25 16.125C20.8711 16.125 21.3984 16.3477 21.832 16.793C22.2773 17.2266 22.5 17.7539 22.5 18.375C22.5 19.1484 22.1895 19.7637 21.5684 20.2207C21.1816 20.502 20.748 20.6426 20.2676 20.6426Z" fill="white"/>
</svg>
